Patient4_TMGait_0pt2_02_left_07_GRF.mot
version=1
nRows=32
nColumns=19
inDegrees=no
endheader
time	F1x	F1y	F1z	M1x	M1y	M1z	F2x	F2y	F2z	M2x	M2y	M2z	EC1x	EC1y	EC1z	EC2x	EC2y	EC2z
15.62	9.3623	39.182	0.86186	-14.0877	1.5693	36.9692	-25.4372	721.4797	-44.5098	255.6604	59.8821	770.8272	-0.0592	0.0182	-0.0073	-0.0462	0.0165	0.9585
15.6434	7.3703	32.2928	0.76512	-11.5204	1.2205	30.5248	-25.1487	745.6685	-45.4224	264.547	60.7304	794.3883	-0.0592	0.0182	-0.0073	-0.0462	0.0165	0.9585
15.6669	5.2087	24.7711	0.63452	-8.7737	0.80956	23.4875	-24.3625	773.3076	-46.3035	274.6545	61.2704	820.846	-0.0592	0.0182	-0.0073	-0.0462	0.0165	0.9585
15.6903	3.153	17.4738	0.4959	-6.1505	0.3938	16.6621	-23.0399	801.9306	-47.0584	285.0872	61.3573	847.682	-0.0592	0.0182	-0.0073	-0.0462	0.0165	0.9585
15.7137	1.444	11.1371	0.37677	-3.901	0.029603	10.7388	-21.2681	828.59	-47.6241	294.781	60.9347	871.9749	-0.0592	0.0182	-0.0073	-0.0462	0.0165	0.9585
15.7371	0.17389	6.1795	0.29497	-2.1609	-0.26091	6.1089	-19.2142	850.284	-47.9751	302.6528	60.0279	890.8031	-0.0592	0.0182	-0.0073	-0.0462	0.0165	0.9585
15.7606	-0.68922	2.6589	0.25073	-0.93983	-0.47749	2.824	-17.0262	864.4906	-48.1184	307.7932	58.7091	901.745	-0.0592	0.0182	-0.0073	-0.0462	0.0165	0.9585
15.784	-1.2187	0.38954	0.23629	-0.16281	-0.62711	0.70321	-14.7609	869.794	-48.0669	309.6926	57.0446	903.4759	-0.0592	0.0182	-0.0073	-0.0462	0.0165	0.9585
15.8074	-1.499	-0.93274	0.24206	0.28412	-0.7227	-0.54518	-12.4108	866.2101	-47.8444	308.3594	55.1067	896.0886	-0.0592	0.0182	-0.0073	-0.0462	0.0165	0.9585
15.8309	-1.6112	-1.6439	0.2579	0.52232	-0.77957	-1.24	-9.9679	855.0562	-47.4908	304.2749	52.9922	880.9619	-0.0592	0.0182	-0.0073	-0.0462	0.0165	0.9585
15.8543	-1.6214	-2.0608	0.27473	0.66373	-0.81082	-1.6836	-7.4448	838.6005	-47.0275	298.2676	50.7903	860.4042	-0.0592	0.0182	-0.0073	-0.0462	0.0165	0.9585
15.8777	-1.5813	-2.4491	0.2818	0.80353	-0.82232	-2.1368	-4.8731	819.5994	-46.4447	291.3446	48.5566	837.194	-0.0592	0.0182	-0.0073	-0.0462	0.0165	0.9585
15.9011	-1.5254	-3.0093	0.26734	1.0151	-0.81002	-2.7962	-2.2957	800.7862	-45.7117	284.5054	46.3098	814.0657	-0.0592	0.0182	-0.0073	-0.0462	0.0165	0.9585
15.9246	-1.4653	-3.8599	0.22155	1.3423	-0.76104	-3.7814	0.26413	784.4038	-44.8097	278.5704	44.0483	793.2564	-0.0592	0.0182	-0.0073	-0.0462	0.0165	0.9585
15.948	-1.3937	-5.0189	0.13631	1.7917	-0.65785	-5.1108	2.8094	771.8745	-43.7603	274.0598	41.7764	776.1858	-0.0592	0.0182	-0.0073	-0.0462	0.0165	0.9585
15.9714	-1.2867	-6.3743	0.0048276	2.319	-0.48273	-6.659	5.343	763.6648	-42.6194	271.1431	39.5122	763.3368	-0.0592	0.0182	-0.0073	-0.0462	0.0165	0.9585
15.9949	-1.1069	-7.6392	-0.17061	2.8119	-0.22406	-8.1094	7.8518	759.3279	-41.473	269.6556	37.3016	754.3067	-0.0592	0.0182	-0.0073	-0.0462	0.0165	0.9585
16.0183	-0.80855	-8.3027	-0.37423	3.0713	0.11712	-8.9051	10.3195	757.7078	-40.4307	269.1726	35.2195	748.0185	-0.0592	0.0182	-0.0073	-0.0462	0.0165	0.9585
16.0417	-0.34173	-7.5824	-0.57322	2.7951	0.52365	-8.2042	12.7215	757.2176	-39.6009	269.1101	33.3514	742.994	-0.0592	0.0182	-0.0073	-0.0462	0.0165	0.9585
16.0651	0.3389	-4.4063	-0.71148	1.5711	0.95173	-4.8456	15.0098	756.0762	-39.0678	268.81	31.7812	737.5739	-0.0592	0.0182	-0.0073	-0.0462	0.0165	0.9585
16.0886	1.257	2.5549	-0.70295	-1.1118	1.3135	2.6194	17.1397	752.5465	-38.8576	267.6314	30.5503	730.138	-0.0592	0.0182	-0.0073	-0.0462	0.0165	0.9585
16.112	2.3876	14.7633	-0.42892	-5.8118	1.4621	15.7932	19.1029	745.154	-38.9051	265.0353	29.6095	719.3095	-0.0592	0.0182	-0.0073	-0.0462	0.0165	0.9585
16.1354	3.6034	33.5615	0.26191	-13.0372	1.1743	36.1614	20.8889	732.7427	-39.0653	260.6061	28.8375	704.0106	-0.0592	0.0182	-0.0073	-0.0462	0.0165	0.9585
16.1589	4.5537	59.7978	1.5443	-23.1035	0.11866	64.6883	22.4293	714.4346	-39.1445	254.0388	28.0896	683.441	-0.0592	0.0182	-0.0073	-0.0462	0.0165	0.9585
16.1823	4.6318	93.342	3.585	-35.9458	-2.1226	101.2934	23.5978	689.6595	-38.9346	245.1519	27.2332	657.1044	-0.0592	0.0182	-0.0073	-0.0462	0.0165	0.9585
16.2057	3.4681	132.9415	6.4991	-51.0598	-5.8204	144.6663	24.2633	658.3138	-38.2518	233.9401	26.1652	624.9433	-0.0592	0.0182	-0.0073	-0.0462	0.0165	0.9585
16.2291	1.1705	176.4706	10.2678	-67.6128	-10.9129	192.4754	24.3411	620.9411	-36.9847	220.6289	24.8333	587.5004	-0.0592	0.0182	-0.0073	-0.0462	0.0165	0.9585
16.2526	-1.8808	221.7932	14.5438	-84.7956	-16.8657	242.3221	23.8266	578.7908	-35.1265	205.68	23.246	545.9558	-0.0592	0.0182	-0.0073	-0.0462	0.0165	0.9585
16.276	-5.2992	267.456	18.8847	-102.0703	-23.0349	292.5388	22.8065	533.6826	-32.7948	189.7361	21.4829	501.9976	-0.0592	0.0182	-0.0073	-0.0462	0.0165	0.9585
16.2994	-8.7459	312.4421	22.9655	-119.059	-28.9267	341.9299	21.4133	487.6376	-30.178	173.4983	19.6606	457.4872	-0.0592	0.0182	-0.0073	-0.0462	0.0165	0.9585
16.3229	-11.8862	355.7143	26.6102	-135.3661	-34.2148	389.2781	19.7682	442.4923	-27.4701	157.6002	17.8949	414.109	-0.0592	0.0182	-0.0073	-0.0462	0.0165	0.9585
16.3463	-14.3904	396.0887	29.7653	-150.5325	-38.7103	433.2164	17.9591	399.677	-24.842	142.5332	16.2863	373.1644	-0.0592	0.0182	-0.0073	-0.0462	0.0165	0.9585
